<?xml version="1.0" encoding="iso-8859-1"?>
<!-- Generator: Adobe Illustrator 19.0.0, SVG Export Plug-In . SVG Version: 6.00 Build 0)  -->
<svg version="1.1" id="Layer_1" xmlns="http://www.w3.org/2000/svg" xmlns:xlink="http://www.w3.org/1999/xlink" x="0px" y="0px"
	 viewBox="0 0 512.001 512.001" style="enable-background:new 0 0 512.001 512.001;" xml:space="preserve">
<polygon style="fill:#2D2D2D;" points="395.272,502.109 266.432,393.261 138.36,502.085 117.64,477.7 266.368,351.325 
	415.928,477.676 "/>
<rect x="21.6" y="30.692" style="fill:#FFFFFF;" width="469.602" height="341.596"/>
<rect y="9.892" width="512.001" height="21.6"/>
<rect y="372.291" width="512.001" height="21.6"/>
<rect x="160.004" y="452.557" style="fill:#2D2D2D;" width="192.003" height="10.672"/>
<g>
	<rect x="55.998" y="63.492" style="fill:#999999;" width="181.602" height="53.6"/>
	<rect x="55.998" y="137.888" style="fill:#999999;" width="181.602" height="53.6"/>
</g>
<g>
	<rect x="55.998" y="228.555" style="fill:#D8D6D6;" width="181.602" height="10.672"/>
	<rect x="55.998" y="249.356" style="fill:#D8D6D6;" width="181.602" height="10.672"/>
	<rect x="55.998" y="270.157" style="fill:#D8D6D6;" width="181.602" height="10.672"/>
	<rect x="55.998" y="290.959" style="fill:#D8D6D6;" width="181.602" height="10.672"/>
	<rect x="55.998" y="311.76" style="fill:#D8D6D6;" width="181.602" height="10.672"/>
	<rect x="55.998" y="332.561" style="fill:#D8D6D6;" width="181.602" height="10.672"/>
	<rect x="274.401" y="228.555" style="fill:#D8D6D6;" width="181.602" height="10.672"/>
	<rect x="274.401" y="249.356" style="fill:#D8D6D6;" width="181.602" height="10.672"/>
	<rect x="274.401" y="270.157" style="fill:#D8D6D6;" width="181.602" height="10.672"/>
	<rect x="274.401" y="290.959" style="fill:#D8D6D6;" width="181.602" height="10.672"/>
	<rect x="274.401" y="311.76" style="fill:#D8D6D6;" width="181.602" height="10.672"/>
	<rect x="274.401" y="332.561" style="fill:#D8D6D6;" width="181.602" height="10.672"/>
</g>
<rect x="306.4" y="143.497" style="fill:#E21B1B;" width="21.6" height="52.003"/>
<rect x="274.401" y="165.892" width="21.6" height="31.202"/>
<rect x="338.398" y="115.493" width="21.6" height="80.804"/>
<rect x="370.397" y="63.492" style="fill:#E21B1B;" width="21.6" height="133.604"/>
<rect x="402.396" y="89.89" width="21.6" height="106.397"/>
<rect x="434.405" y="133.096" style="fill:#E21B1B;" width="21.6" height="63.998"/>
<g>
</g>
<g>
</g>
<g>
</g>
<g>
</g>
<g>
</g>
<g>
</g>
<g>
</g>
<g>
</g>
<g>
</g>
<g>
</g>
<g>
</g>
<g>
</g>
<g>
</g>
<g>
</g>
<g>
</g>
</svg>
