<?xml version="1.0" encoding="iso-8859-1"?>
<!-- Generator: Adobe Illustrator 19.0.0, SVG Export Plug-In . SVG Version: 6.00 Build 0)  -->
<svg version="1.1" id="Capa_1" xmlns="http://www.w3.org/2000/svg" xmlns:xlink="http://www.w3.org/1999/xlink" x="0px" y="0px"
	 viewBox="0 0 468.293 468.293" style="enable-background:new 0 0 468.293 468.293;" xml:space="preserve">
<path style="fill:#3A556A;" d="M379.706,468.293H88.587c-6.897,0-12.488-5.591-12.488-12.488V78.017
	c0-6.897,5.591-12.488,12.488-12.488h291.119c6.897,0,12.488,5.591,12.488,12.488v377.788
	C392.194,462.702,386.603,468.293,379.706,468.293z"/>
<path style="fill:#EBF0F3;" d="M94.832,437.073V96.75c0-6.897,5.591-12.488,12.488-12.488h253.652
	c6.897,0,12.488,5.591,12.488,12.488v340.323c0,6.897-5.591,12.488-12.488,12.488H107.32
	C100.423,449.561,94.832,443.97,94.832,437.073z"/>
<path style="fill:#FCD462;" d="M287.477,31.269l-7.979,0c-6.94,0-13.568-4.012-15.908-10.546C259.264,8.642,247.714,0,234.145,0
	c-13.568,0-25.119,8.642-29.446,20.723c-2.34,6.533-8.968,10.546-15.908,10.546l-7.978,0c-8.571,0-16.092,5.712-18.392,13.968
	l-10.702,38.408c-2.261,8.113,3.84,16.145,12.262,16.145h140.33c8.422,0,14.522-8.032,12.262-16.145L305.87,45.237
	C303.569,36.98,296.048,31.269,287.477,31.269z"/>
<circle style="fill:#DC8744;" cx="234.146" cy="38.487" r="18.232"/>
<g>
	<path style="fill:#44C4A1;" d="M145.099,188.387c-3.616,0-7.207-1.549-9.665-4.524l-12.049-14.631
		c-2.195-2.662-1.817-6.598,0.848-8.79c2.671-2.195,6.604-1.808,8.787,0.851l12.049,14.628
		c37.067-29.451,45.427-29.451,48.171-29.451c3.451,0,6.244,2.796,6.244,6.244s-2.793,6.244-6.244,6.244
		c-2.537,0.186-14.317,6.015-40.415,26.75C150.557,187.512,147.819,188.387,145.099,188.387z"/>
	<rect x="221.459" y="146.469" style="fill:#44C4A1;" width="124.878" height="12.488"/>
	<path style="fill:#44C4A1;" d="M145.099,264.526c-3.616,0-7.207-1.549-9.665-4.524l-12.049-14.631
		c-2.195-2.662-1.817-6.598,0.848-8.79c2.671-2.195,6.604-1.808,8.787,0.851l12.049,14.628
		c37.067-29.451,45.427-29.451,48.171-29.451c3.451,0,6.244,2.796,6.244,6.244s-2.793,6.244-6.244,6.244
		c-2.537,0.186-14.317,6.015-40.415,26.75C150.557,263.651,147.819,264.526,145.099,264.526z"/>
	<rect x="221.459" y="222.595" style="fill:#44C4A1;" width="124.878" height="12.488"/>
	<path style="fill:#44C4A1;" d="M145.099,340.665c-3.616,0-7.207-1.549-9.665-4.524l-12.049-14.631
		c-2.195-2.662-1.817-6.598,0.848-8.79c2.671-2.195,6.604-1.808,8.787,0.851l12.049,14.628
		c37.067-29.451,45.427-29.451,48.171-29.451c3.451,0,6.244,2.796,6.244,6.244c0,3.448-2.793,6.244-6.244,6.244
		c-2.537,0.186-14.317,6.015-40.415,26.75C150.557,339.79,147.819,340.665,145.099,340.665z"/>
	<rect x="221.459" y="298.771" style="fill:#44C4A1;" width="124.878" height="12.488"/>
	<path style="fill:#44C4A1;" d="M145.099,416.804c-3.616,0-7.207-1.549-9.665-4.524l-12.049-14.631
		c-2.195-2.662-1.817-6.598,0.848-8.79c2.671-2.195,6.604-1.808,8.787,0.851l12.049,14.628
		c37.067-29.451,45.427-29.451,48.171-29.451c3.451,0,6.244,2.796,6.244,6.244c0,3.448-2.793,6.244-6.244,6.244
		c-2.537,0.186-14.317,6.015-40.415,26.75C150.557,415.929,147.819,416.804,145.099,416.804z"/>
	<rect x="221.459" y="374.884" style="fill:#44C4A1;" width="124.878" height="12.488"/>
</g>
<g>
</g>
<g>
</g>
<g>
</g>
<g>
</g>
<g>
</g>
<g>
</g>
<g>
</g>
<g>
</g>
<g>
</g>
<g>
</g>
<g>
</g>
<g>
</g>
<g>
</g>
<g>
</g>
<g>
</g>
</svg>
