<!DOCTYPE svg PUBLIC "-//W3C//DTD SVG 1.1//EN" "http://www.w3.org/Graphics/SVG/1.1/DTD/svg11.dtd">
<!-- Uploaded to: SVG Repo, www.svgrepo.com, Transformed by: SVG Repo Mixer Tools -->
<svg width="203px" height="203px" viewBox="-2 -2 24.00 24.00" xmlns="http://www.w3.org/2000/svg" fill="#ecd6a7" stroke="#ecd6a7">
<g id="SVGRepo_bgCarrier" stroke-width="0"/>
<g id="SVGRepo_tracerCarrier" stroke-linecap="round" stroke-linejoin="round" stroke="#CCCCCC" stroke-width="0.8800000000000001"/>
<g id="SVGRepo_iconCarrier"> <g id="user-circle-2" transform="translate(-2 -2)"> <path id="secondary" fill="#ffe894" d="M12,3A9,9,0,0,0,5.55,18.27a7,7,0,0,1,4.28-3.92h0a4,4,0,1,1,4.34,0h0a7,7,0,0,1,4.28,3.92A9,9,0,0,0,12,3Z"/> <path id="primary" d="M16,11a4,4,0,1,1-4-4A4,4,0,0,1,16,11Zm-1.83,3.35a3.95,3.95,0,0,1-4.34,0,7,7,0,0,0-4.28,3.92,9,9,0,0,0,12.81.09l.09-.09a7,7,0,0,0-4.28-3.92ZM21,12h0a9,9,0,0,0-9-9h0a9,9,0,0,0-9,9H3a9,9,0,0,0,9,9h0a9,9,0,0,0,9-9Z" fill="none" stroke="#29ABE2" stroke-linecap="round" stroke-linejoin="round" stroke-width="0.48"/> </g> </g>
</svg>