<?xml version="1.0" encoding="iso-8859-1"?>
<!-- Generator: Adobe Illustrator 19.0.0, SVG Export Plug-In . SVG Version: 6.00 Build 0)  -->
<svg version="1.1" id="Capa_1" xmlns="http://www.w3.org/2000/svg" xmlns:xlink="http://www.w3.org/1999/xlink" x="0px" y="0px"
	 viewBox="0 0 512 512" style="enable-background:new 0 0 512 512;" xml:space="preserve">
<rect x="72.424" y="60.746" style="fill:#29ABE2;" width="364.475" height="451.254"/>
<rect x="107.136" y="95.458" style="fill:#E6E6E6;" width="295.051" height="381.831"/>
<rect x="193.915" y="43.39" style="fill:#0071BC;" width="121.492" height="69.424"/>
<path style="fill:#B3B3B3;" d="M298.051,43.39h-17.356c0-14.379-11.655-26.034-26.034-26.034c-14.379,0-26.034,11.655-26.034,26.034
	h-17.356c0-23.96,19.43-43.39,43.39-43.39S298.051,19.43,298.051,43.39z"/>
<rect x="54.945" y="388.282" transform="matrix(-0.9947 0.1029 -0.1029 -0.9947 593.6361 798.0085)" style="fill:#FBB03B;" width="442.58" height="52.068"/>
<polygon style="fill:#C69C6D;" points="58.808,462.978 12.971,441.544 53.445,411.188 "/>
<rect x="418.812" y="371.809" transform="matrix(-0.9947 0.103 -0.103 -0.9947 910.9937 748.6464)" style="fill:#DA4836;" width="34.713" height="52.069"/>
<g>
	<rect x="150.525" y="156.203" style="fill:#FBB03B;" width="34.712" height="34.712"/>
	<rect x="150.525" y="234.305" style="fill:#FBB03B;" width="34.712" height="34.712"/>
	<rect x="150.525" y="312.407" style="fill:#FBB03B;" width="34.712" height="34.712"/>
</g>
<g>
	<rect x="211.271" y="147.525" style="fill:#B3B3B3;" width="17.356" height="17.356"/>
	<rect x="245.983" y="147.525" style="fill:#B3B3B3;" width="121.492" height="17.356"/>
	<rect x="211.271" y="182.237" style="fill:#B3B3B3;" width="121.492" height="17.356"/>
	<rect x="211.271" y="225.627" style="fill:#B3B3B3;" width="17.356" height="17.356"/>
	<rect x="245.983" y="225.627" style="fill:#B3B3B3;" width="121.492" height="17.356"/>
	<rect x="211.271" y="260.339" style="fill:#B3B3B3;" width="121.492" height="17.356"/>
	<rect x="211.271" y="303.729" style="fill:#B3B3B3;" width="17.356" height="17.356"/>
	<rect x="245.983" y="303.729" style="fill:#B3B3B3;" width="121.492" height="17.356"/>
	<rect x="211.271" y="338.441" style="fill:#B3B3B3;" width="121.492" height="17.356"/>
	<path style="fill:#B3B3B3;" d="M480.288,138.847h-17.356v-86.78c0-9.589-7.767-17.356-17.356-17.356h-52.068V17.356h52.068
		c19.17,0,34.712,15.542,34.712,34.712V138.847z"/>
	<rect x="462.967" y="156.203" style="fill:#B3B3B3;" width="17.356" height="17.356"/>
	<rect x="29.034" y="216.949" style="fill:#B3B3B3;" width="17.356" height="138.847"/>
	<rect x="29.034" y="182.237" style="fill:#B3B3B3;" width="17.356" height="17.356"/>
</g>
<g>
</g>
<g>
</g>
<g>
</g>
<g>
</g>
<g>
</g>
<g>
</g>
<g>
</g>
<g>
</g>
<g>
</g>
<g>
</g>
<g>
</g>
<g>
</g>
<g>
</g>
<g>
</g>
<g>
</g>
</svg>
